<svg id="Capa_1" enable-background="new 0 0 512 512" height="512" viewBox="0 0 512 512" width="512" xmlns="http://www.w3.org/2000/svg"><g><g><path clip-rule="evenodd" d="m176.97 64.851c0-35.302-28.969-64.197-64.363-64.197-35.423 0-64.392 28.894-64.392 64.197v242.02c-29.145 20.302-48.215 54.002-48.215 92.159 0 62.012 50.404 112.315 112.606 112.315 62.173 0 112.606-50.303 112.606-112.315 0-38.157-19.07-71.857-48.243-92.159v-242.02z" fill="#f4eafa" fill-rule="evenodd"/></g><g><path clip-rule="evenodd" d="m176.97 306.871v-242.02c0-35.302-28.969-64.197-64.363-64.197-4.906 0-9.666.553-14.28 1.602 28.531 6.583 49.937 32.186 49.937 62.566v242.02c29.174 20.273 48.243 53.973 48.243 92.13 0 57.235-42.928 104.48-98.443 111.442 4.76.612 9.608.932 14.543.932 62.173 0 112.606-50.303 112.606-112.315 0-38.158-19.07-71.858-48.243-92.16z" fill="#dedbee" fill-rule="evenodd"/></g><g><path d="m321.582 72.577h-107.992c-4.267 0-7.726-3.459-7.726-7.726s3.459-7.726 7.726-7.726h107.992c4.267 0 7.726 3.459 7.726 7.726s-3.458 7.726-7.726 7.726z" fill="#025f80"/></g><g><path d="m267.586 113.764h-53.996c-4.267 0-7.726-3.459-7.726-7.726s3.459-7.726 7.726-7.726h53.996c4.267 0 7.726 3.459 7.726 7.726s-3.459 7.726-7.726 7.726z" fill="#025f80"/></g><g><path d="m321.582 154.921h-107.992c-4.267 0-7.726-3.459-7.726-7.726s3.459-7.726 7.726-7.726h107.992c4.267 0 7.726 3.459 7.726 7.726s-3.458 7.726-7.726 7.726z" fill="#025f80"/></g><g><path d="m267.586 196.107h-53.996c-4.267 0-7.726-3.459-7.726-7.726s3.459-7.726 7.726-7.726h53.996c4.267 0 7.726 3.459 7.726 7.726s-3.459 7.726-7.726 7.726z" fill="#025f80"/></g><g><path d="m321.582 237.264h-107.992c-4.267 0-7.726-3.459-7.726-7.726s3.459-7.726 7.726-7.726h107.992c4.267 0 7.726 3.459 7.726 7.726.001 4.267-3.458 7.726-7.726 7.726z" fill="#025f80"/></g><g><path d="m267.586 278.45h-53.996c-4.267 0-7.726-3.459-7.726-7.726s3.459-7.726 7.726-7.726h53.996c4.267 0 7.726 3.459 7.726 7.726s-3.459 7.726-7.726 7.726z" fill="#025f80"/></g><g><path clip-rule="evenodd" d="m133.72 329.387v-210.708h-42.227v210.708l-18.515 12.874c-18.631 12.991-29.728 34.021-29.728 56.769 0 38.215 31.043 69.149 69.357 69.149 38.285 0 69.328-30.933 69.328-69.149 0-22.749-11.068-43.779-29.729-56.769z" fill="#eb5569" fill-rule="evenodd"/></g><g><path clip-rule="evenodd" d="m133.72 118.679v-53.828c0-11.476-9.608-21.059-21.114-21.059-11.535 0-21.114 9.583-21.114 21.059v53.828z" fill="#99e6fc" fill-rule="evenodd"/></g><g><path clip-rule="evenodd" d="m133.72 118.679v-53.828c0-11.476-9.608-21.059-21.114-21.059-3.3 0-6.425.786-9.199 2.155 7.009 3.466 11.915 10.69 11.915 18.904v53.828z" fill="#62dbfb" fill-rule="evenodd"/></g><g><path clip-rule="evenodd" d="m133.72 329.387v-210.708h-18.398v217.902c58.756 30.409 52.186 104.713-11.915 130.986 3.008.408 6.074.612 9.199.612 38.285 0 69.328-30.933 69.328-69.149 0-22.749-11.068-43.779-29.729-56.769z" fill="#e53950" fill-rule="evenodd"/></g><g><path clip-rule="evenodd" d="m506.057 429.236-95.172-156.851c-8.41-13.894-27.071-13.894-35.482 0l-95.172 156.851c-12.849 21.176-4.205 41.74 19.595 41.74h186.636c23.8-.001 32.445-20.565 19.595-41.74z" fill="#eb5569" fill-rule="evenodd"/></g><g><path d="m393.159 431.894c-4.267 0-7.726-3.459-7.726-7.726v-.146c0-4.267 3.459-7.726 7.726-7.726s7.726 3.459 7.726 7.726v.146c0 4.267-3.459 7.726-7.726 7.726zm0-48.906c-4.267 0-7.726-3.459-7.726-7.726v-37.399c0-4.267 3.459-7.726 7.726-7.726s7.726 3.459 7.726 7.726v37.399c0 4.267-3.459 7.726-7.726 7.726z" fill="#f4eafa"/></g><g><path clip-rule="evenodd" d="m431.882 374.447c0 40.516-8.615 70.43-22.953 96.528h77.534c23.8 0 32.444-20.564 19.595-41.74l-95.172-156.851c-2.862-4.748-6.921-7.864-11.389-9.379 19.886 27.467 32.385 70.955 32.385 111.442z" fill="#e53950" fill-rule="evenodd"/></g></g></svg>