<?xml version="1.0" encoding="UTF-8"?>
<svg xmlns="http://www.w3.org/2000/svg" id="Layer_3" data-name="Layer 3" viewBox="0 0 64 64" width="512" height="512"><path d="M4,57.983v2a2,2,0,0,0,2,2H8a2,2,0,0,0,2-2v-2" style="fill:#39474d"/><rect x="2" y="40.983" width="34" height="4" rx="2" style="fill:#c43d32"/><path d="M31.932,44.932l-.517-7.949A5.433,5.433,0,0,0,26,32H12a5.433,5.433,0,0,0-5.415,4.983l-.517,7.949Z" style="fill:#3b98e0"/><path d="M9.517,36.983,9,44.932H31.932l-.517-7.949A5.433,5.433,0,0,0,26,32H14.932A5.433,5.433,0,0,0,9.517,36.983Z" style="fill:#41a5ef"/><path d="M34,53.983v-5h0a5,5,0,0,0-5-5H9a5,5,0,0,0-5,5H4v5Z" style="fill:#c43d32"/><rect x="2" y="53.983" width="34" height="4" rx="2" style="fill:#475a62"/><path d="M34,53.983H4a2,2,0,0,0,2,2H36A2,2,0,0,0,34,53.983Z" style="fill:#586e7a"/><path d="M26,32H12a5.432,5.432,0,0,0-5.238,4H31.238A5.432,5.432,0,0,0,26,32Z" style="fill:#c43d32"/><path d="M9.693,36H31.238A5.432,5.432,0,0,0,26,32H14.932A5.434,5.434,0,0,0,9.693,36Z" style="fill:#e2513a"/><path d="M25,46.983a4,4,0,1,1,4-4A4,4,0,0,1,25,46.983Zm0-6a2,2,0,1,0,2,2A2,2,0,0,0,25,40.983Z" style="fill:#3186cd"/><path d="M34,48.983a5,5,0,0,0-5-5H9a4.95,4.95,0,0,0-2.375.625A4.947,4.947,0,0,0,6,46.983a5,5,0,0,0,5,5H34Z" style="fill:#e2513a"/><path d="M10,48.175a1.808,1.808,0,0,0-1.1-1.662L5.79,45.178A4.968,4.968,0,0,0,4,48.983v1H8.192A1.808,1.808,0,0,0,10,48.175Z" style="fill:#f2c141"/><path d="M32.21,45.179,29.1,46.513a1.808,1.808,0,0,0,.712,3.47H34v-1A4.965,4.965,0,0,0,32.21,45.179Z" style="fill:#f8d84b"/><path d="M8.9,46.513,6.285,45.391A4.768,4.768,0,0,0,6,46.983a4.956,4.956,0,0,0,1.023,3H8.192a1.808,1.808,0,0,0,.712-3.47Z" style="fill:#f8d84b"/><path d="M5,58.983a2,2,0,0,0,2,2H9a1.99,1.99,0,0,0,.82-.18,1.99,1.99,0,0,0,.18-.82v-2H5Z" style="fill:#283237"/><path d="M34,57.983v2a2,2,0,0,1-2,2H30a2,2,0,0,1-2-2v-2" style="fill:#39474d"/><path d="M33,58.983a2,2,0,0,1-2,2H29a1.99,1.99,0,0,1-.82-.18,1.99,1.99,0,0,1-.18-.82v-2h5Z" style="fill:#283237"/><path d="M26,53.983l-1.106-2.211A3.234,3.234,0,0,0,22,49.983H16a3.234,3.234,0,0,0-2.894,1.789L12,53.983" style="fill:#39474d"/><path d="M26,53.983l-1.106-2.211a2.982,2.982,0,0,0-.171-.29,3.224,3.224,0,0,0-1.723-.5H17a3.234,3.234,0,0,0-2.894,1.789L13.5,53.983Z" style="fill:#475a62"/><path d="M36,36.484V39l-9.209,2.3A8.966,8.966,0,0,0,20,50h0V62H62V50h0a8.966,8.966,0,0,0-6.791-8.7L46,39V36.484Z" style="fill:#b2b2b2"/><path d="M55.209,41.3,46,39V36.484H39V39l-9.209,2.3A8.966,8.966,0,0,0,23,50V62H62V50A8.966,8.966,0,0,0,55.209,41.3Z" style="fill:#cbcbcb"/><path d="M46,39l-.03.119A5.123,5.123,0,0,1,41,43h0a5.123,5.123,0,0,1-4.97-3.881L36,39V35H46Z" style="fill:#f2ad73"/><path d="M50,25h1a3,3,0,0,1,3,3h0a3,3,0,0,1-3,3H49.776" style="fill:#f2ad73"/><path d="M32,25H31a3,3,0,0,0-3,3h0a3,3,0,0,0,3,3h1.224" style="fill:#f2ad73"/><path d="M41,38h0a9,9,0,0,0,9-9V18h0a5.55,5.55,0,0,0-3.8-5.265h0A14.317,14.317,0,0,0,41.675,12h-1.35a14.317,14.317,0,0,0-4.53.735h0A5.55,5.55,0,0,0,32,18h0V29a9,9,0,0,0,9,9Z" style="fill:#f2ad73"/><path d="M42,37.941A9,9,0,0,0,50,29V18a5.55,5.55,0,0,0-3.8-5.265,14.319,14.319,0,0,0-4.2-.722,14.319,14.319,0,0,0-4.2.722A5.55,5.55,0,0,0,34,18V29A9,9,0,0,0,42,37.941Z" style="fill:#f9c387"/><path d="M50,24l-1.149,1.723A2.867,2.867,0,0,1,46.465,27h0a2.875,2.875,0,0,1-.906-.147l-.662-.221A12.343,12.343,0,0,0,41,26h0a12.343,12.343,0,0,0-3.9.632l-.662.221a2.875,2.875,0,0,1-.906.147h0a2.867,2.867,0,0,1-2.386-1.277L32,24V21H50Z" style="fill:#2976b9"/><path d="M46.205,12.735A14.317,14.317,0,0,0,41.675,12h-1.35a14.317,14.317,0,0,0-4.53.735A5.55,5.55,0,0,0,32,18v6a18.946,18.946,0,0,1,8.472-2h1.056A18.946,18.946,0,0,1,50,24V18A5.55,5.55,0,0,0,46.205,12.735Z" style="fill:#2976b9"/><path d="M50,18a5.55,5.55,0,0,0-3.8-5.265,14.319,14.319,0,0,0-4.2-.722,14.319,14.319,0,0,0-4.2.722A5.55,5.55,0,0,0,34,18v5.141A18.924,18.924,0,0,1,40.472,22h1.056A18.946,18.946,0,0,1,50,24Z" style="fill:#3186cd"/><path d="M42.079,12.216l-.8-.16c-.425.03-.849.075-1.269.142l-.088.018A4.876,4.876,0,0,0,36,17v5.55A18.927,18.927,0,0,1,40.472,22h1.056A18.923,18.923,0,0,1,46,22.539V17A4.876,4.876,0,0,0,42.079,12.216Z" style="fill:#41a5ef"/><path d="M41,19a2,2,0,1,1,2-2A2,2,0,0,1,41,19Zm0-2v0Z" style="fill:#2976b9"/><polygon points="27 62 27 55 28.774 40.806 33 39.75 33 51 49 51 49 39.75 53.226 40.806 55 55 55 62 27 62" style="fill:#2976b9"/><polygon points="53.226 40.806 49 39.75 49 51 33 51 33 39.75 30.966 40.259 29 55 29 62 55 62 55 55 53.226 40.806" style="fill:#3b98e0"/><rect x="32" y="57" width="18" height="2" style="fill:#2976b9"/><path d="M24,12h3a4,4,0,0,0,4-4V6L28.58,7.613A2.3,2.3,0,0,1,27.3,8h0A2.3,2.3,0,0,1,25,5.7h0a2.3,2.3,0,0,1,.387-1.277L27,2H25a4,4,0,0,0-4,4V9l-9,9H9a4,4,0,0,0-4,4H5v2l2.42-1.613A2.3,2.3,0,0,1,8.7,22h0A2.3,2.3,0,0,1,11,24.3h0a2.3,2.3,0,0,1-.387,1.277L9,28h2a4,4,0,0,0,4-4V21Z" style="fill:#cbcbcb"/><path d="M28.58,7.613a2.3,2.3,0,0,1-2.906-.287L10.326,22.674A2.3,2.3,0,0,1,11,24.3h0a2.3,2.3,0,0,1-.387,1.277L9,28h2a4,4,0,0,0,4-4V21l9-9h3a4,4,0,0,0,4-4V6Z" style="fill:#b2b2b2"/><path d="M45.97,39.119,46,39V37.482a8.947,8.947,0,0,1-8,.995V39l.03.119A5.117,5.117,0,0,0,42,42.892,5.117,5.117,0,0,0,45.97,39.119Z" style="fill:#f9c387"/><circle cx="41" cy="17" r="2"/><path d="M55.451,40.333,47,38.22V36.981A10.033,10.033,0,0,0,50.539,32H51a4,4,0,0,0,0-8V18a6.54,6.54,0,0,0-4.479-6.213A15.271,15.271,0,0,0,41.676,11H40.324a15.3,15.3,0,0,0-4.845.786A6.542,6.542,0,0,0,31,18v6a4,4,0,0,0,0,8h.461A10.033,10.033,0,0,0,35,36.981V38.22l-2.463.616L32.411,36.9A6.47,6.47,0,0,0,26,31H12a6.475,6.475,0,0,0-6.413,5.918l-.2,3.064H4a2.993,2.993,0,0,0-.177,5.982A5.954,5.954,0,0,0,3,48.982v4.185A2.982,2.982,0,0,0,3,58.8v1.184a3,3,0,0,0,3,3H8a3,3,0,0,0,3-3v-1h8V62a1,1,0,0,0,1,1H62a1,1,0,0,0,1-1V50A9.947,9.947,0,0,0,55.451,40.333ZM54,55.062V61H28V55.062L29.682,41.61,32,41.031V51a1,1,0,0,0,1,1H49a1,1,0,0,0,1-1V41.031l2.318.579Zm-38-6.08a4.214,4.214,0,0,0-3.789,2.342l-.829,1.658H5v-2H8.192A2.807,2.807,0,0,0,9.3,45.594l-1.181-.506A3.959,3.959,0,0,1,9,44.982H20.359a9.935,9.935,0,0,0-1.3,4Zm3,2v2H13.618L14,52.219a2.223,2.223,0,0,1,2-1.237ZM6.005,46.358,8.51,47.432a.808.808,0,0,1-.318,1.55H5A3.965,3.965,0,0,1,6.005,46.358ZM37,17a3.889,3.889,0,0,1,3.117-3.8L41,13.02l.883.176A3.889,3.889,0,0,1,45,17v4.308A19.822,19.822,0,0,0,41.528,21H40.472A19.822,19.822,0,0,0,37,21.308Zm3.472,6h1.056a18.06,18.06,0,0,1,6.99,1.421l-.5.747a1.894,1.894,0,0,1-2.146.735l-.66-.218a13.375,13.375,0,0,0-8.427,0l-.663.22a1.9,1.9,0,0,1-2.144-.736l-.5-.747A18.06,18.06,0,0,1,40.472,23ZM53,28a2,2,0,0,1-2,2h-.051A10.007,10.007,0,0,0,51,29V26A2,2,0,0,1,53,28ZM49,18v4.462a19.824,19.824,0,0,0-2-.688V17a5.841,5.841,0,0,0-1.03-3.281A4.538,4.538,0,0,1,49,18ZM36.031,13.718A5.835,5.835,0,0,0,35,17v4.774a19.824,19.824,0,0,0-2,.688V18A4.538,4.538,0,0,1,36.031,13.718ZM31,30a2,2,0,0,1,0-4v3a10.007,10.007,0,0,0,.051,1Zm2-1V27.029a3.938,3.938,0,0,0,3.757.773l.662-.221a11.366,11.366,0,0,1,7.163,0l.659.219A3.857,3.857,0,0,0,49,27.049V29a8,8,0,0,1-16,0Zm8,10a9.929,9.929,0,0,0,4-.841v.718a4.122,4.122,0,0,1-8,0v-.717A9.929,9.929,0,0,0,41,39Zm-5.656,1.194a6.106,6.106,0,0,0,11.312,0L48,40.53V50H34V40.53Zm-7.654-.146A3.952,3.952,0,0,0,25,38.982a4,4,0,0,0-4,4H9a5.962,5.962,0,0,0-1.821.285l.4-6.2c0-.022.01-.043.012-.065H30.408c0,.016.008.031.009.047l.148,2.282Zm-3.021.968a9.912,9.912,0,0,0-1.153.638A1.993,1.993,0,0,1,24.669,41.016ZM12,33H26a4.448,4.448,0,0,1,3.682,2H8.321A4.442,4.442,0,0,1,12,33ZM3,42.982a1,1,0,0,1,1-1H5.258l-.13,2H4A1,1,0,0,1,3,42.982Zm6,17a1,1,0,0,1-1,1H6a1,1,0,0,1-1-1v-1H9Zm-5-3a1,1,0,0,1,0-2H19v2ZM21,50a7.954,7.954,0,0,1,6.033-7.728l.568-.142L26.008,54.876A1.032,1.032,0,0,0,26,55v6H21ZM61,61H56V55a1.032,1.032,0,0,0-.008-.124L54.4,42.13l.568.142A7.954,7.954,0,0,1,61,50Z"/><rect x="32" y="57" width="18" height="2"/><path d="M4.528,24.882a1,1,0,0,0,1.027-.05l2.42-1.613A1.288,1.288,0,0,1,8.7,23,1.3,1.3,0,0,1,10,24.3a1.288,1.288,0,0,1-.219.722l-1.613,2.42A1,1,0,0,0,9,29h2a5.006,5.006,0,0,0,5-5V21.414L24.414,13H27a5.006,5.006,0,0,0,5-5V6a1,1,0,0,0-1.555-.832l-2.42,1.613A1.288,1.288,0,0,1,27.3,7,1.3,1.3,0,0,1,26,5.7a1.288,1.288,0,0,1,.219-.722l1.613-2.42A1,1,0,0,0,27,1H25a5.006,5.006,0,0,0-5,5V8.586L11.586,17H9a5.006,5.006,0,0,0-5,5v2A1,1,0,0,0,4.528,24.882ZM6,22a3,3,0,0,1,3-3h3a1,1,0,0,0,.707-.293l9-9A1,1,0,0,0,22,9V6a3,3,0,0,1,3-3h.132l-.577.865a3.3,3.3,0,0,0,4.58,4.58L30,7.868V8a3,3,0,0,1-3,3H24a1,1,0,0,0-.707.293l-9,9A1,1,0,0,0,14,21v3a3,3,0,0,1-3,3h-.132l.577-.865a3.3,3.3,0,0,0-4.58-4.58L6,22.132Z"/></svg>
